<svg id="Layer_1" data-name="Layer 1" xmlns="http://www.w3.org/2000/svg" xmlns:xlink="http://www.w3.org/1999/xlink" viewBox="0 0 817.71 1048.57"><defs><style>.cls-1,.cls-2,.cls-3{stroke:#fff;stroke-miterlimit:10;}.cls-1,.cls-3{stroke-width:2.33px;}.cls-1{fill:url(#linear-gradient);}.cls-2,.cls-4,.cls-8{fill:#fca10f;}.cls-2{stroke-width:4.66px;}.cls-3{fill:url(#linear-gradient-2);}.cls-4{font-size:138.5px;}.cls-4,.cls-5{font-family:TimesNewRomanPSMT, Times New Roman;}.cls-5{font-size:41.84px;}.cls-6{letter-spacing:-0.11em;}.cls-7{letter-spacing:-0.04em;}</style><linearGradient id="linear-gradient" x1="630.25" y1="422.07" x2="732.5" y2="422.07" gradientTransform="matrix(1, 0.07, -0.07, 1, -46.06, 23.08)" gradientUnits="userSpaceOnUse"><stop offset="0" stop-color="#074293"/><stop offset="1" stop-color="#2bb6bf"/></linearGradient><linearGradient id="linear-gradient-2" x1="417.92" y1="801.3" x2="417.92" y2="213.1" gradientUnits="userSpaceOnUse"><stop offset="0.25" stop-color="#073193"/><stop offset="1" stop-color="#2bb6bf"/></linearGradient></defs><title>DNBS-LOGO</title><path class="cls-1" d="M625.06,399.18s27.64-9,35.36,16L635,470.39,573.92,584.06s-21.32,11.49-27-13.92Z"/><polygon class="cls-2" points="227.2 128.06 251.14 51.74 277.57 128.06 352.39 128.06 289.8 177.94 317.98 253.25 254.63 205.87 191.28 253.25 209.74 175.94 151.88 129.05 227.2 128.06"/><path class="cls-3" d="M217.79,241.05s-76.77,400.14,0,551.27c0,0,269.81-29.93,406,9,0,0,50.87-203.51,16.46-320.22,0,0-22.78-35.58-32.26-35.58s-51.54,28.1-22,54.7S610.3,517.49,610.8,526s-19,116.72-91.28,131.68c0,0-66.34,22.94-105.25-9.48,0,0,44.4-13,55.87-62.35s14-75.81,14-75.81l69.34-2L334,488.56,327.49,508l37.4,2s-7.48,72.82,2.5,112.23l.5,3.49s-50.38-42.4-69.83-97.27S259.65,391.3,258.15,346.9s-3-133.8-3-133.8Z"/><text class="cls-4" transform="translate(232.56 786.62)">DNBS</text><path d="M67.6,903.83v-1.4h1.7a6.87,6.87,0,0,0,3.41-.69,4.33,4.33,0,0,0,1.76-1.91,18.3,18.3,0,0,0,.34-4.75V861.41a16.6,16.6,0,0,0-.42-4.9,3.78,3.78,0,0,0-1.68-1.72,6.77,6.77,0,0,0-3.41-.74H67.6v-1.39H90.5q9.18,0,14.76,2.49a21.86,21.86,0,0,1,10.36,9.24,29.44,29.44,0,0,1,1.79,24,22.9,22.9,0,0,1-4.49,7.51,22.06,22.06,0,0,1-6.36,4.75,34,34,0,0,1-8.81,2.78,41.68,41.68,0,0,1-7.25.45Zm19.51-48.27v39.93a14.2,14.2,0,0,0,.3,3.89,2.12,2.12,0,0,0,1,1.09,6.13,6.13,0,0,0,2.94.57q6.3,0,9.63-4.3,4.53-5.82,4.53-18,0-9.86-3.1-15.74a13.19,13.19,0,0,0-6.3-6.26Q93.42,855.53,87.11,855.56Z"/><path d="M143.53,879.23v15.85A16.11,16.11,0,0,0,144,900a3.89,3.89,0,0,0,1.7,1.72,6.77,6.77,0,0,0,3.41.73h1.7v1.4H124v-1.4h1.69a7.08,7.08,0,0,0,3.59-.79,3.42,3.42,0,0,0,1.51-1.81,15.47,15.47,0,0,0,.41-4.75V861.41a16.74,16.74,0,0,0-.41-4.9,3.78,3.78,0,0,0-1.68-1.72,6.78,6.78,0,0,0-3.42-.74H124v-1.39h26.75v1.39h-1.7a7.06,7.06,0,0,0-3.58.8,3.57,3.57,0,0,0-1.55,1.81,15.47,15.47,0,0,0-.41,4.75V875.9H161.6V861.41a17.12,17.12,0,0,0-.41-4.9,3.74,3.74,0,0,0-1.7-1.72,6.9,6.9,0,0,0-3.43-.74H154.4v-1.39h26.71v1.39h-1.66a6.91,6.91,0,0,0-3.58.8,3.57,3.57,0,0,0-1.55,1.81,15.47,15.47,0,0,0-.41,4.75v33.67a16.74,16.74,0,0,0,.41,4.9,3.74,3.74,0,0,0,1.7,1.72,6.88,6.88,0,0,0,3.43.73h1.66v1.4H154.4v-1.4h1.66a6.91,6.91,0,0,0,3.58-.79,3.61,3.61,0,0,0,1.55-1.81,15.82,15.82,0,0,0,.41-4.75V879.23Z"/><path d="M214.66,889.26H196.59l-2.15,5a11,11,0,0,0-1.06,4.11,3.42,3.42,0,0,0,1.74,3.17c.67.4,2.35.7,5,.9v1.4h-17v-1.4a7.53,7.53,0,0,0,4.53-2.28c1.19-1.24,2.64-3.82,4.38-7.72l18.3-40.83H211l18.45,42c1.77,4,3.21,6.47,4.34,7.51a5.92,5.92,0,0,0,3.63,1.35v1.4H212.7v-1.4h1a7.7,7.7,0,0,0,4.19-.83,2,2,0,0,0,.83-1.73,4.71,4.71,0,0,0-.23-1.4c0-.22-.43-1.17-1.13-2.83Zm-1.28-2.79-7.62-17.62-7.85,17.62Z"/><path d="M258.85,880.51v14.34c0,2.77.17,4.51.51,5.23a3.71,3.71,0,0,0,1.8,1.71,12,12,0,0,0,4.79.64v1.4H239.76v-1.4a11.75,11.75,0,0,0,4.81-.66,3.82,3.82,0,0,0,1.77-1.71c.34-.71.51-2.44.51-5.21V861.64c0-2.77-.17-4.51-.51-5.23a3.65,3.65,0,0,0-1.79-1.71,12,12,0,0,0-4.79-.65v-1.39h23.77q9.29,0,13.59,1.28a13.72,13.72,0,0,1,7,4.74,12.71,12.71,0,0,1,2.72,8.09,12.07,12.07,0,0,1-4.08,9.36,16.85,16.85,0,0,1-7.28,3.51L287.8,897a26,26,0,0,0,3.43,4.19,6.38,6.38,0,0,0,3.59,1.28v1.4H278.71l-16.5-23.32Zm0-25.1v22.42H261a24.15,24.15,0,0,0,7.85-1,7.8,7.8,0,0,0,4.09-3.48,12.72,12.72,0,0,0,1.49-6.54q0-5.85-2.74-8.64t-8.81-2.8Z"/><path d="M331,886.4l13.89-33.74h20.83v1.39H364a7.11,7.11,0,0,0-3.62.8,3.68,3.68,0,0,0-1.51,1.77,15.19,15.19,0,0,0-.42,4.72v33.74a16.6,16.6,0,0,0,.42,4.9,3.74,3.74,0,0,0,1.7,1.72,6.88,6.88,0,0,0,3.43.73h1.66v1.4H339v-1.4h1.66a7.19,7.19,0,0,0,3.63-.79,3.65,3.65,0,0,0,1.51-1.81,15.82,15.82,0,0,0,.41-4.75V857.15l-19.62,46.68h-.91l-19.92-46.34v36a31.15,31.15,0,0,0,.19,4.64,5.34,5.34,0,0,0,2.13,3.08,8.88,8.88,0,0,0,5.15,1.18v1.4H295.69v-1.4h.53a8,8,0,0,0,3.17-.54,5,5,0,0,0,2.22-1.57,7,7,0,0,0,1.17-2.75c.05-.28.08-1.56.08-3.85V861.34a16.22,16.22,0,0,0-.42-4.85,3.75,3.75,0,0,0-1.7-1.7,6.87,6.87,0,0,0-3.43-.74h-1.62v-1.39H316.6Z"/><path d="M399.24,889.26H381.16l-2.15,5a11.13,11.13,0,0,0-1.05,4.11,3.41,3.41,0,0,0,1.73,3.17c.68.4,2.35.7,5,.9v1.4h-17v-1.4a7.53,7.53,0,0,0,4.53-2.28q1.77-1.86,4.38-7.72l18.3-40.83h.72l18.45,42q2.64,6,4.34,7.51a5.89,5.89,0,0,0,3.62,1.35v1.4H397.28v-1.4h1a7.73,7.73,0,0,0,4.19-.83,2,2,0,0,0,.83-1.73,4.71,4.71,0,0,0-.23-1.4c0-.22-.43-1.17-1.13-2.83ZM398,886.47l-7.63-17.62-7.85,17.62Z"/><path d="M457.21,852.66l25.24,31.74v-22c0-3.06-.44-5.14-1.32-6.22q-1.81-2.19-6.07-2.12v-1.39H492v1.39a12.89,12.89,0,0,0-4.35,1.08,4.28,4.28,0,0,0-1.74,2.15,14.55,14.55,0,0,0-.62,5.11V905H484l-34.6-42.61v32.53q0,4.43,2,6a7.37,7.37,0,0,0,4.62,1.54h1.21v1.4H439.05v-1.4q4.23,0,5.89-1.73t1.66-5.78V858.81l-1.09-1.36a10,10,0,0,0-2.87-2.68,8.61,8.61,0,0,0-3.59-.72v-1.39Z"/><path d="M514.83,855.6v20.83h1q4.88,0,7.06-3t2.79-9h1.44v26.79H525.7a20.19,20.19,0,0,0-1.9-7.17,8.31,8.31,0,0,0-3.38-3.76,12.88,12.88,0,0,0-5.59-1v14.42a20.7,20.7,0,0,0,.36,5.17,3.16,3.16,0,0,0,1.34,1.55,6.34,6.34,0,0,0,3.17.6h3.06q7.17,0,11.49-3.32c2.88-2.21,5-5.59,6.21-10.11h1.39l-2.3,16.26H495.32v-1.4H497a7.1,7.1,0,0,0,3.59-.79,3.46,3.46,0,0,0,1.51-1.81,15.82,15.82,0,0,0,.41-4.75V861.41a26.21,26.21,0,0,0-.19-4.26,3.65,3.65,0,0,0-1.39-2,6.55,6.55,0,0,0-3.93-1.06h-1.7v-1.39h42.84v15.13h-1.44q-1.1-5.55-3.07-8a11.51,11.51,0,0,0-5.61-3.55,30.45,30.45,0,0,0-7.92-.68Z"/><path d="M598.65,851.49v18h-1.4a23,23,0,0,0-7.58-11.25,17.84,17.84,0,0,0-11.06-3.85,14.29,14.29,0,0,0-9.55,3.23,17.41,17.41,0,0,0-5.39,9,44.44,44.44,0,0,0-1.59,11.85,43.16,43.16,0,0,0,1.74,12.9,14.65,14.65,0,0,0,5.6,8.16,16.11,16.11,0,0,0,9.19,2.6,18.51,18.51,0,0,0,3.79-.4,25.31,25.31,0,0,0,4-1.15V890a11.26,11.26,0,0,0-.41-3.9,3.82,3.82,0,0,0-1.72-1.61,6.43,6.43,0,0,0-3.15-.72h-1.32v-1.39h24.87v1.39a10.88,10.88,0,0,0-3.94.78,3.84,3.84,0,0,0-1.72,1.94,10.59,10.59,0,0,0-.34,3.51v10.64a50.11,50.11,0,0,1-10.21,3.3,52.82,52.82,0,0,1-11,1.12,31.9,31.9,0,0,1-12.09-2,30.33,30.33,0,0,1-8.5-5.21,24.47,24.47,0,0,1-5.75-7.27,25.39,25.39,0,0,1-2.64-11.66,26.27,26.27,0,0,1,8.11-19.51q8.11-8,20.42-8a35.86,35.86,0,0,1,6.87.6,36.7,36.7,0,0,1,5.37,1.72,22.94,22.94,0,0,0,4.4,1.42,3,3,0,0,0,2-.78,6.75,6.75,0,0,0,1.66-2.92Z"/><path d="M637.6,889.26H619.52l-2.15,5a11,11,0,0,0-1.06,4.11,3.42,3.42,0,0,0,1.74,3.17c.68.4,2.35.7,5,.9v1.4h-17v-1.4a7.53,7.53,0,0,0,4.52-2.28q1.78-1.86,4.38-7.72l18.31-40.83H634l18.46,42c1.76,4,3.2,6.47,4.34,7.51a5.87,5.87,0,0,0,3.62,1.35v1.4H635.63v-1.4h1a7.68,7.68,0,0,0,4.19-.83,2,2,0,0,0,.83-1.73,4.41,4.41,0,0,0-.23-1.4c-.05-.22-.42-1.17-1.13-2.83Zm-1.29-2.79-7.62-17.62-7.85,17.62Z"/><path d="M681.79,880.51v14.34c0,2.77.17,4.51.51,5.23a3.69,3.69,0,0,0,1.79,1.71,12,12,0,0,0,4.79.64v1.4H662.69v-1.4a11.72,11.72,0,0,0,4.81-.66,3.84,3.84,0,0,0,1.78-1.71c.34-.71.51-2.44.51-5.21V861.64c0-2.77-.17-4.51-.51-5.23a3.71,3.71,0,0,0-1.8-1.71,12,12,0,0,0-4.79-.65v-1.39h23.78q9.28,0,13.58,1.28a13.72,13.72,0,0,1,7,4.74,12.71,12.71,0,0,1,2.72,8.09,12.07,12.07,0,0,1-4.08,9.36,16.8,16.8,0,0,1-7.28,3.51L710.73,897a25.88,25.88,0,0,0,3.44,4.19,6.33,6.33,0,0,0,3.58,1.28v1.4H701.64l-16.49-23.32Zm0-25.1v22.42h2.15a24.15,24.15,0,0,0,7.85-1,7.8,7.8,0,0,0,4.09-3.48,12.62,12.62,0,0,0,1.49-6.54q0-5.85-2.73-8.64t-8.82-2.8Z"/><path d="M749.23,889.26H731.15l-2.15,5a11,11,0,0,0-1.06,4.11,3.42,3.42,0,0,0,1.74,3.17c.68.4,2.35.7,5,.9v1.4h-17v-1.4a7.53,7.53,0,0,0,4.52-2.28q1.78-1.86,4.38-7.72l18.3-40.83h.72l18.46,42c1.76,4,3.2,6.47,4.34,7.51a5.87,5.87,0,0,0,3.62,1.35v1.4H747.26v-1.4h1a7.7,7.7,0,0,0,4.19-.83,2,2,0,0,0,.83-1.73,4.71,4.71,0,0,0-.23-1.4c-.05-.22-.42-1.17-1.13-2.83Zm-1.29-2.79-7.62-17.62-7.85,17.62Z"/><text class="cls-5" transform="translate(66.54 962.99)">BUSINESS &amp; INFORM<tspan class="cls-6" x="413.81" y="0">A</tspan><tspan x="439.38" y="0">TICS SCHOO</tspan><tspan class="cls-7" x="682.31" y="0">L</tspan></text><path class="cls-8" d="M70.94,829.83s337.92-67,675.83,8.09C746.77,837.92,463.56,678.67,70.94,829.83Z"/></svg>